<svg xmlns="http://www.w3.org/2000/svg" xmlns:xlink="http://www.w3.org/1999/xlink" version="1.1" x="0px" y="0px" viewBox="0 0 174.6 92.2" style="enable-background:new 0 0 174.6 92.2;" xml:space="preserve"><style type="text/css">
	.st0{display:none;}
	.st1{fill:none;stroke:#000000;stroke-width:0.161;stroke-miterlimit:10;}
	.st2{stroke:#000000;stroke-width:0.161;stroke-miterlimit:10;}
	.st3{display:none;fill:none;stroke:#000000;stroke-width:0.161;stroke-miterlimit:10;}
</style><g><path class="st1" d="M68.7,37.5c0,0-3.9-0.8-4.2-6.3c-0.1-1.9,1-3.6,2.3-4.9c1.3-1.3,2.9-2.4,4.6-3.3c0.3-0.2,0.6-0.3,0.9-0.5   c0.5-0.2,1-0.4,1.4-0.7c0.3-0.2,0.6-0.5,0.8-0.9c0.1-0.3,0.1-0.6,0.1-0.9c0-0.3-0.1-0.6-0.2-0.9c-0.5-1-1.6-1.7-2.5-2.1   C71,16.6,70,16.4,69,16.4c-1.1-0.1-2.1,0.1-3.2,0.3c-5.1,1.1-8.9,3.7-10.8,5.2s-8.3,7.9-13.2,9.9c-4.9,2-12.4,1.3-12.4,1.3   c-1.3-0.1-2.6-0.1-4-0.1c-2.6,0-5.3,0-7.9,0.3c-3.1,0.3-6.2,1.1-9,2.5c-1,0.5-2,1.1-2.8,1.8c-2.7,2.4-5.5,8.2-5.7,14.9   s3.6,16.9,3.6,16.9s4.1,12.4,10.1,18S27,92,27,92s8.7-1.3,13.8-6.9c0,0,10.3-10.9,10.4-10.9c1.1-1.1,2.4-2.1,3.8-2.6   c2.5-1,5.3-1.2,7.9-1.2c4,0,6.2-0.3,6.2-0.3c1.8-0.2,3.5-0.7,5.1-1.5c1.3-0.6,2.5-1.4,3.5-2.4c0.7-0.6,1.3-1.4,1.6-2.3   c0.3-0.9,0.4-1.9,0-2.8c-0.2-0.5-0.6-0.9-1-1.1c-0.4-0.2-0.8-0.2-1.3-0.2c-1.2,0-2.5,0.1-3.7,0.3c-0.7,0.1-1.5,0.3-2.2,0.4   c-2.4,0.1-4.3-1.9-5.5-3.7c-0.2-0.3-0.4-0.6-0.5-0.9c-0.5-1.3-0.9-4.1-0.3-5.5l78.7-33.9c0,0,1.5-0.7,3.2-0.5   c1.7,0.2,4.3,2.5,4.3,2.5s0.5,0.9,5.9-3.2c1.7-1.3,3.5-2.7,5.4-3.8c0.7-0.4,1.5-1.1,2.4-0.9c0.4,0.1,0.8,0.4,1.1,0.7   s0.5,0.7,0.9,0.9c0.8,0.6,1.9,0.8,2.9,0.6c1.6-0.2,3-1,4-2.3c1-1.4,1.2-2.9,0.9-4.6c-0.6-2.8-4.1-3.1-6.4-3   c-1.1,0.1-2.1,0.2-3.2,0.3c-0.6,0.1-1.2,0.1-1.8,0.2c-1.6,0.2-3.2,0.3-4.9,0.5c-1.9,0.2-3.8,0.4-5.6,0.6c-1.8,0.2-3.5,0.3-5.3,0.5   c-1.3,0.1-2.6,0.2-3.9,0.4c-0.4,0-0.9,0.1-1.3,0.1c0,0-1.3-0.1-2.1,3.3L68.7,37.5z"></path><path class="st1" d="M68.7,37.5l-11.9,4.9c0,0-0.8,0.6-0.5,1.6c0,0.1,0.1,0.2,0.1,0.3c0,0.1,0.1,0.3,0.1,0.4c0,0.2,0.1,0.4,0.1,0.5   c0.1,0.2,0.1,0.4,0.2,0.6c0.1,0.2,0.1,0.5,0.2,0.7c0.1,0.3,0.2,0.5,0.3,0.8c0.1,0.3,0.2,0.5,0.3,0.8c0.1,0.3,0.2,0.5,0.3,0.8   c0.1,0.3,0.3,0.5,0.4,0.8c0.1,0.2,0.3,0.5,0.4,0.7c0.2,0.2,0.3,0.5,0.5,0.7c0.1,0.2,0.3,0.3,0.4,0.4c0.1,0.1,0.3,0.3,0.4,0.4   c0,0,0,0,0,0c0,0,0.1,0.1,0.1,0.1c0.1,0,0.1,0,0.2,0c0.1,0,0.2,0,0.2-0.1c0.1,0,0.2-0.1,0.3-0.1c0.2,0,0.3-0.1,0.5-0.1   c0.2-0.1,0.4-0.1,0.6-0.2c0.2-0.1,0.5-0.2,0.7-0.3c0.3-0.1,0.6-0.2,0.9-0.4c0.3-0.1,0.6-0.3,0.9-0.4"></path><path class="st1" d="M57.1,54.9L57.1,54.9c-0.9,0.4-2-0.1-2.4-1l-3.6-8.7c-0.4-0.9,0.1-2,1-2.4h0c0.9-0.4,2,0.1,2.4,1l3.6,8.7   C58.5,53.5,58,54.5,57.1,54.9z"></path><path class="st1" d="M46.7,59.2L46.7,59.2c-0.9,0.4-2-0.1-2.4-1l-3.6-8.7c-0.4-0.9,0.1-2,1-2.4h0c0.9-0.4,2,0.1,2.4,1l3.6,8.7   C48.1,57.8,47.6,58.8,46.7,59.2z"></path><path class="st1" d="M36,63.6L36,63.6c-1,0.2-2-0.4-2.2-1.3l-2.2-9.2c-0.2-1,0.4-2,1.3-2.2l0,0c1-0.2,2,0.4,2.2,1.3l2.2,9.2   C37.5,62.4,36.9,63.4,36,63.6z"></path><path class="st1" d="M28.7,67.5L28.7,67.5c-2,0.8-4.4-0.1-5.2-2.2l-2.4-5.7c-0.8-2,0.1-4.4,2.2-5.2l0,0c2-0.8,4.4,0.1,5.2,2.2   l2.4,5.7C31.7,64.3,30.7,66.6,28.7,67.5z"></path><path class="st2" d="M145.8,2.5l-1.2,0.1c-0.6,0-1,0.5-1,1.1c0,0.6,0.5,1,1.1,1l0.3,0l0.1,0.8l0.6,0l-0.1-0.8l0.4,0   c0.6,0,1-0.5,1-1.1C146.9,2.9,146.4,2.4,145.8,2.5z"></path><path class="st2" d="M150.3,2l-1.2,0.1c-0.6,0-1,0.5-1,1.1c0,0.6,0.5,1,1.1,1l0.3,0l0.1,0.8l0.6,0l-0.1-0.8l0.4,0   c0.6,0,1-0.5,1-1.1C151.4,2.4,150.9,2,150.3,2z"></path><path class="st2" d="M154.7,1.6l-1.2,0.1c-0.6,0-1,0.5-1,1.1c0,0.6,0.5,1,1.1,1l0.3,0l0.1,0.8l0.6,0l-0.1-0.8l0.4,0   c0.6,0,1-0.5,1-1.1C155.8,2,155.3,1.5,154.7,1.6z"></path><path class="st2" d="M159.3,1.1l-1.2,0.1c-0.6,0-1,0.5-1,1.1c0,0.6,0.5,1,1.1,1l0.3,0l0.1,0.8l0.6,0l-0.1-0.8l0.4,0   c0.6,0,1-0.5,1-1.1C160.4,1.5,159.9,1.1,159.3,1.1z"></path><path class="st2" d="M163.8,0.7l-1.2,0.1c-0.6,0-1,0.5-1,1.1c0,0.6,0.5,1,1.1,1l0.3,0l0.1,0.8l0.6,0l-0.1-0.8l0.4,0   c0.6,0,1-0.5,1-1.1C164.9,1.1,164.4,0.6,163.8,0.7z"></path><path class="st2" d="M168.4,0.1l-1.2,0.1c-0.6,0-1,0.5-1,1.1c0,0.6,0.5,1,1.1,1l0.3,0l0.1,0.8l0.6,0l-0.1-0.8l0.4,0   c0.6,0,1-0.5,1-1.1C169.5,0.5,169,0,168.4,0.1z"></path><ellipse transform="matrix(0.9238 -0.3829 0.3829 0.9238 8.2335 56.1852)" class="st2" cx="145.2" cy="7.4" rx="1.1" ry="1.1"></ellipse><ellipse transform="matrix(0.9238 -0.3829 0.3829 0.9238 8.7197 57.8836)" class="st2" cx="149.8" cy="7" rx="1.1" ry="1.1"></ellipse><ellipse transform="matrix(0.9238 -0.3829 0.3829 0.9238 9.285 59.6803)" class="st2" cx="154.6" cy="6.5" rx="1.1" ry="1.1"></ellipse><ellipse transform="matrix(0.9238 -0.3829 0.3829 0.9238 9.7562 61.3887)" class="st2" cx="159.1" cy="6.2" rx="1.1" ry="1.1"></ellipse><ellipse transform="matrix(0.9238 -0.3829 0.3829 0.9238 10.3051 63.1144)" class="st2" cx="163.7" cy="5.7" rx="1.1" ry="1.1"></ellipse><ellipse transform="matrix(0.9238 -0.3829 0.3829 0.9238 10.8606 64.8358)" class="st2" cx="168.3" cy="5.1" rx="1.1" ry="1.1"></ellipse><line class="st1" x1="144.6" y1="8.4" x2="138.9" y2="10.6"></line><line class="st1" x1="149.3" y1="7.7" x2="139.4" y2="11.8"></line><line class="st1" x1="154.3" y1="7.3" x2="140" y2="13"></line><line class="st1" x1="158.7" y1="6.8" x2="140.5" y2="14.3"></line><line class="st1" x1="141" y1="15.5" x2="164" y2="6"></line><line class="st1" x1="141.4" y1="16.7" x2="168.4" y2="5.6"></line><line class="st1" x1="138.9" y1="10.6" x2="25.3" y2="55.8"></line><line class="st1" x1="139.4" y1="11.8" x2="25.9" y2="57.6"></line><line class="st1" x1="140" y1="13" x2="27.1" y2="59.1"></line><line class="st1" x1="140.5" y1="14.3" x2="27.1" y2="61.3"></line><line class="st1" x1="141" y1="15.5" x2="28.9" y2="62.7"></line><line class="st1" x1="141.4" y1="16.7" x2="28.9" y2="64.8"></line><rect x="139.7" y="9.3" transform="matrix(0.9238 -0.3829 0.3829 0.9238 5.4956 54.6831)" class="st2" width="0.8" height="8.4"></rect><rect x="133.3" y="12.1" transform="matrix(0.9238 -0.3829 0.3829 0.9238 3.9059 52.364)" class="st2" width="0.3" height="8.6"></rect><rect x="127.3" y="14.5" transform="matrix(0.9238 -0.3829 0.3829 0.9238 2.5163 50.258)" class="st2" width="0.3" height="8.6"></rect><rect x="121.6" y="16.7" transform="matrix(0.9238 -0.3829 0.3829 0.9238 1.2077 48.2492)" class="st2" width="0.3" height="8.8"></rect><rect x="116.3" y="18.9" transform="matrix(0.9238 -0.3829 0.3829 0.9238 -6.721098e-002 46.3692)" class="st2" width="0.3" height="9"></rect><rect x="111.3" y="20.9" transform="matrix(0.9238 -0.3829 0.3829 0.9238 -1.2445 44.6129)" class="st2" width="0.3" height="9.2"></rect><rect x="106.6" y="22.8" transform="matrix(0.9238 -0.3829 0.3829 0.9238 -2.3434 42.9556)" class="st2" width="0.3" height="9.2"></rect><rect x="102.1" y="24.5" transform="matrix(0.9238 -0.3829 0.3829 0.9238 -3.4041 41.3833)" class="st2" width="0.3" height="9.4"></rect><rect x="97.8" y="26.2" transform="matrix(0.9238 -0.3829 0.3829 0.9238 -4.387 39.8876)" class="st2" width="0.3" height="9.5"></rect><rect x="93.9" y="27.8" transform="matrix(0.9238 -0.3829 0.3829 0.9238 -5.2981 38.5018)" class="st2" width="0.3" height="9.6"></rect><rect x="90.1" y="29.3" transform="matrix(0.9238 -0.3829 0.3829 0.9238 -6.2058 37.1798)" class="st2" width="0.3" height="9.7"></rect><rect x="86.6" y="30.7" transform="matrix(0.9238 -0.3829 0.3829 0.9238 -7.0131 35.9421)" class="st2" width="0.3" height="9.8"></rect><rect x="83.3" y="32" transform="matrix(0.9238 -0.3829 0.3829 0.9238 -7.8132 34.7881)" class="st2" width="0.3" height="10"></rect><rect x="80.1" y="33.3" transform="matrix(0.9238 -0.3829 0.3829 0.9238 -8.5475 33.6462)" class="st2" width="0.3" height="10.1"></rect><rect x="77.2" y="34.5" transform="matrix(0.9238 -0.3829 0.3829 0.9238 -9.2456 32.6191)" class="st2" width="0.3" height="10.1"></rect><rect x="74.4" y="35.6" transform="matrix(0.9238 -0.3829 0.3829 0.9238 -9.9151 31.6516)" class="st2" width="0.3" height="10.2"></rect><rect x="71.7" y="36.6" transform="matrix(0.9238 -0.3829 0.3829 0.9238 -10.5184 30.6935)" class="st2" width="0.3" height="10.3"></rect><rect x="69.2" y="37.6" transform="matrix(0.9238 -0.3829 0.3829 0.9238 -11.116 29.8229)" class="st2" width="0.3" height="10.4"></rect><rect x="66.9" y="38.6" transform="matrix(0.9238 -0.3829 0.3829 0.9238 -11.6608 29.0085)" class="st2" width="0.3" height="10.4"></rect><rect x="64.7" y="39.6" transform="matrix(0.9238 -0.3829 0.3829 0.9238 -12.2137 28.2435)" class="st2" width="0.3" height="10.4"></rect><rect x="62.6" y="40.4" transform="matrix(0.9238 -0.3829 0.3829 0.9238 -12.7009 27.5009)" class="st2" width="0.3" height="10.4"></rect><rect x="60.6" y="41.3" transform="matrix(0.9238 -0.3829 0.3829 0.9238 -13.1743 26.7931)" class="st2" width="0.3" height="10.4"></rect><rect x="58.7" y="42.1" transform="matrix(0.9238 -0.3829 0.3829 0.9238 -13.5988 26.1346)" class="st2" width="0.3" height="10.2"></rect><ellipse transform="matrix(0.9238 -0.3829 0.3829 0.9238 1.8277 49.2766)" class="st2" cx="124.7" cy="20" rx="0.5" ry="0.5"></ellipse><ellipse transform="matrix(0.9238 -0.3829 0.3829 0.9238 -0.6651 45.5256)" class="st2" cx="114" cy="24.4" rx="0.5" ry="0.5"></ellipse><ellipse transform="matrix(0.9238 -0.3829 0.3829 0.9238 -2.9248 42.1797)" class="st2" cx="104.5" cy="28.4" rx="0.5" ry="0.5"></ellipse><ellipse transform="matrix(0.9238 -0.3829 0.3829 0.9238 -4.8702 39.2131)" class="st2" cx="96.1" cy="31.8" rx="0.5" ry="0.5"></ellipse><ellipse transform="matrix(0.9238 -0.3829 0.3829 0.9238 -8.1027 35.8088)" class="st2" cx="85.9" cy="38.3" rx="0.5" ry="0.5"></ellipse><ellipse transform="matrix(0.9238 -0.3829 0.3829 0.9238 -6.7568 34.9087)" class="st2" cx="84.3" cy="34.4" rx="0.5" ry="0.5"></ellipse><ellipse transform="matrix(0.9238 -0.3829 0.3829 0.9238 -9.5799 32.1193)" class="st2" cx="75.9" cy="40.1" rx="0.5" ry="0.5"></ellipse><ellipse transform="matrix(0.9238 -0.3829 0.3829 0.9238 -10.8378 30.272)" class="st2" cx="70.6" cy="42.4" rx="0.5" ry="0.5"></ellipse><ellipse transform="matrix(0.9238 -0.3829 0.3829 0.9238 -11.9545 28.617)" class="st2" cx="65.9" cy="44.3" rx="0.5" ry="0.5"></ellipse><ellipse transform="matrix(0.9238 -0.3829 0.3829 0.9238 -12.9412 27.1179)" class="st2" cx="61.6" cy="46.1" rx="0.5" ry="0.5"></ellipse><path class="st1" d="M61.8,51.8c0.1,0,0.1,3.9,0.1,4.2c0.2,2,1.3,3.8,2.8,5.2c1,0.9,2.2,1.7,3.5,2c1.4,0.3,2.9,0.5,4.3,0.5   c0.7,0,1.4-0.1,2-0.2c0.9-0.2,1.5-0.8,2.4-1c0.1,0,0.2,0,0.3,0.1c0.1,0.1,0,0.2,0,0.3c-0.9,2.1-2.7,3.5-4.8,4.3   c-3.8,1.5-9.1,1.4-9.1,1.4l-5.6,0.1c0,0-4.2,0.2-7.6,3.2c-3.4,3-6.2,6.9-8.8,9.1l-3.5,3.4c0,0-3.6,3.1-5.7,3.5   c-1.1,0.2-2.1-0.3-2.5-1.4c-0.5-1.1,0-2.5,0.3-3.6c0.4-1.4,0.8-2.8,1.3-4.2c0.4-1.2,0.8-2.3,0.8-3.6c0-0.9,0-1.8-0.2-2.7   c-0.3-1.9-1-3.7-1.8-5.4c-3.2-6.3-5.5-13-5.5-13s-2-3,0.5-6s5.9-4,5.9-4s3.9-1.5,9.1-1c5.2,0.5,9.6-1,11.7-2.1c2-1.1,4-2.3,5.9-3.5   c0.6-0.4,1.2-0.8,1.9-1.2c0.1-0.1,0.3-0.2,0.5-0.2c0.2,0,0.5,0,0.7,0.2c1,0.6,1,1.7,1,2.7c0,0.5,0,1.1-0.1,1.6"></path><ellipse transform="matrix(0.9238 -0.3829 0.3829 0.9238 -23.0455 19.2999)" class="st1" cx="37" cy="67.5" rx="2.3" ry="2.3"></ellipse><ellipse transform="matrix(0.9238 -0.3829 0.3829 0.9238 -26.1901 19.537)" class="st1" cx="36" cy="75.6" rx="2.3" ry="2.3"></ellipse><ellipse transform="matrix(0.9238 -0.3829 0.3829 0.9238 -29.338 19.2123)" class="st1" cx="33.6" cy="83.3" rx="2.3" ry="2.3"></ellipse><ellipse transform="matrix(0.9238 -0.3829 0.3829 0.9238 -23.0455 19.2999)" class="st1" cx="37" cy="67.5" rx="1.5" ry="1.5"></ellipse><ellipse transform="matrix(0.9238 -0.3829 0.3829 0.9238 -26.1901 19.537)" class="st1" cx="36" cy="75.6" rx="1.5" ry="1.5"></ellipse><ellipse transform="matrix(0.9238 -0.3829 0.3829 0.9238 -29.338 19.2123)" class="st1" cx="33.6" cy="83.3" rx="1.5" ry="1.5"></ellipse><g><path d="M44.9,70.6c0,0,0,0.1,0,0.2c0,0.1,0,0.3-0.1,0.6c-0.2,0.4-0.4,1-0.7,1.6s-0.5,1.1-0.7,1.6c-0.1,0.2-0.2,0.4-0.3,0.5    C43.1,75,43,75.1,43,75.1s0-0.1,0-0.2c0-0.1,0-0.3,0.1-0.6c0.2-0.4,0.4-1,0.7-1.6c0.2-0.6,0.5-1.1,0.7-1.6    c0.1-0.2,0.2-0.4,0.3-0.5C44.9,70.6,44.9,70.6,44.9,70.6z"></path></g><ellipse transform="matrix(0.909 -0.4168 0.4168 0.909 -26.61 24.5814)" class="st2" cx="43" cy="73.2" rx="0.4" ry="0.3"></ellipse><line class="st1" x1="43" y1="73.2" x2="44" y2="72.8"></line><path class="st2" d="M28.6,66.2L28.6,66.2c-0.9,0.4-2-0.1-2.4-1l-3.1-7.4c-0.4-0.9,0.1-2,1-2.4h0c0.9-0.4,2,0.1,2.4,1l3.1,7.4   C30,64.7,29.5,65.8,28.6,66.2z"></path><ellipse transform="matrix(0.9238 -0.3829 0.3829 0.9238 -17.5592 16.838)" class="st2" cx="33.5" cy="52.5" rx="0.5" ry="0.5"></ellipse><ellipse transform="matrix(0.9238 -0.3829 0.3829 0.9238 -18.2535 17.1195)" class="st2" cx="33.9" cy="54.4" rx="0.5" ry="0.5"></ellipse><ellipse transform="matrix(0.9238 -0.3829 0.3829 0.9238 -18.971 17.4228)" class="st2" cx="34.3" cy="56.4" rx="0.5" ry="0.5"></ellipse><ellipse transform="matrix(0.9238 -0.3829 0.3829 0.9238 -19.6826 17.7357)" class="st2" cx="34.7" cy="58.3" rx="0.5" ry="0.5"></ellipse><ellipse transform="matrix(0.9238 -0.3829 0.3829 0.9238 -20.3507 18.0177)" class="st2" cx="35.1" cy="60.1" rx="0.5" ry="0.5"></ellipse><ellipse transform="matrix(0.9238 -0.3829 0.3829 0.9238 -21.0493 18.3116)" class="st2" cx="35.5" cy="62" rx="0.5" ry="0.5"></ellipse><ellipse transform="matrix(0.9238 -0.3829 0.3829 0.9238 -18.6053 22.0321)" class="st2" cx="46" cy="57.8" rx="0.5" ry="0.5"></ellipse><ellipse transform="matrix(0.9238 -0.3829 0.3829 0.9238 -17.9555 21.6134)" class="st2" cx="45.3" cy="55.9" rx="0.5" ry="0.5"></ellipse><ellipse transform="matrix(0.9238 -0.3829 0.3829 0.9238 -17.3131 21.1837)" class="st2" cx="44.6" cy="54.1" rx="0.5" ry="0.5"></ellipse><ellipse transform="matrix(0.9238 -0.3829 0.3829 0.9238 -16.6732 20.781)" class="st2" cx="43.9" cy="52.3" rx="0.5" ry="0.5"></ellipse><ellipse transform="matrix(0.9238 -0.3829 0.3829 0.9238 -16.0644 20.3738)" class="st2" cx="43.1" cy="50.5" rx="0.5" ry="0.5"></ellipse><ellipse transform="matrix(0.9238 -0.3829 0.3829 0.9238 -15.4677 19.9748)" class="st2" cx="42.4" cy="48.8" rx="0.5" ry="0.5"></ellipse><ellipse transform="matrix(0.9238 -0.3829 0.3829 0.9238 -15.5279 25.2976)" class="st2" cx="55.8" cy="51.7" rx="0.5" ry="0.5"></ellipse><ellipse transform="matrix(0.9238 -0.3829 0.3829 0.9238 -14.8619 24.8254)" class="st2" cx="54.9" cy="49.7" rx="0.5" ry="0.5"></ellipse><ellipse transform="matrix(0.9238 -0.3829 0.3829 0.9238 -14.2412 24.4103)" class="st2" cx="54.2" cy="48" rx="0.5" ry="0.5"></ellipse><ellipse transform="matrix(0.9238 -0.3829 0.3829 0.9238 -13.6266 24.0261)" class="st2" cx="53.5" cy="46.2" rx="0.5" ry="0.5"></ellipse><ellipse transform="matrix(0.9238 -0.3829 0.3829 0.9238 -13.0571 23.6452)" class="st2" cx="52.9" cy="44.6" rx="0.5" ry="0.5"></ellipse><ellipse transform="matrix(0.9238 -0.3829 0.3829 0.9238 -16.1871 25.7116)" class="st2" cx="56.5" cy="53.5" rx="0.5" ry="0.5"></ellipse><path class="st3" d="M150.5,16.5c0,0,0-1.4,1-2.1c0,0,0.4-0.6,1.2,2.8"></path><path class="st3" d="M151.8,16c0,0-0.1-0.6,0.6-1.1c0,0,0.1-0.2,0.3,0.5c0,0-0.1-0.3,0.5-0.8c0,0-0.2,0.3-0.1,0.6l0.3-0.2   c0,0-0.3,0.6,0,0.8c0,0,0.2,0.3,0.5-1.1c0,0,0.2-0.4,0.4,0.3c0,0,0.1,0.2,0.2-0.9c0-0.5,0.5,0.6,0.5,0.6"></path><path class="st3" d="M154.8,11.6c0,0,1.1,2.2,1.1,2.2s0,0.2,0.4-0.2"></path><path class="st3" d="M155.5,13.1c0,0-0.7,0.1-0.3,0.7c0.4,0.6,0.7,0,0.7,0"></path><path class="st3" d="M156.6,12.2c0,0-0.5,0.3-0.4,0.6s0.5-0.1,0.5-0.1s-0.3,0.6,0.1,0.5c0.4-0.1,0.5-1,0.5-1l-0.2-0.8   c0,0,0.3,0.6,0.5,0.4s0.2,0.5,0.2,0.5c0.4-0.3,0.4-0.1,0.4-0.3"></path></g></svg>